<svg width="32" height="34" viewBox="0 0 32 34" fill="none" xmlns="http://www.w3.org/2000/svg">
<circle cx="16" cy="18" r="16" fill="#363636"/>
<path d="M25.704 12.056C26.8773 12.056 27.464 12.4293 27.464 13.176C27.464 13.432 27.3787 13.784 27.208 14.232C25.48 18.264 23.848 21.5173 22.312 23.992C21.544 25.208 20.8507 26.04 20.232 26.488C19.6133 26.936 18.9093 27.16 18.12 27.16C17.2667 27.16 16.6267 26.8293 16.2 26.168C15.7947 25.5067 15.5387 24.4187 15.432 22.904C15.3893 22.3493 15.3467 21.5173 15.304 20.408C14.6427 22.2427 14.0347 23.6507 13.48 24.632C12.9467 25.592 12.4133 26.2533 11.88 26.616C11.368 26.9787 10.7493 27.16 10.024 27.16C9.14933 27.16 8.456 26.8187 7.944 26.136C7.45333 25.4533 7.144 24.376 7.016 22.904C6.76 19.9173 6.632 17.304 6.632 15.064V13.944C6.65333 13.2187 6.83467 12.728 7.176 12.472C7.51733 12.1947 8.072 12.056 8.84 12.056C9.39467 12.056 9.8 12.184 10.056 12.44C10.3333 12.6747 10.472 13.08 10.472 13.656C10.472 16.1093 10.6213 19.2987 10.92 23.224C11.624 21.7307 12.2747 20.3013 12.872 18.936C13.4693 17.5707 14.1627 15.8213 14.952 13.688C15.1867 13.048 15.464 12.6213 15.784 12.408C16.1253 12.1733 16.52 12.056 16.968 12.056C17.5653 12.056 18.0133 12.184 18.312 12.44C18.6107 12.6747 18.76 13.08 18.76 13.656V18.616C18.76 20.7493 18.7707 22.2853 18.792 23.224C19.7733 21.5173 20.5733 20.0347 21.192 18.776C21.832 17.5173 22.5467 15.8213 23.336 13.688C23.5707 13.048 23.88 12.6213 24.264 12.408C24.648 12.1733 25.128 12.056 25.704 12.056Z" fill="#F8F8F8"/>
</svg>
